<svg width="518" height="454" viewBox="0 0 518 454" fill="none" xmlns="http://www.w3.org/2000/svg">
<path fill-rule="evenodd" clip-rule="evenodd" d="M11.4393 211.186C27.4393 164.186 92.9393 112.686 147.439 105.186C184.363 100.105 216.926 114.072 258.5 136.048C289.539 156.055 325.094 175.392 361 174.793C421 173.793 486 107.293 488 51.2931C489.6 6.49312 404 59.2931 361 91.2931C397.8 -30.8724 241 23.7242 158 66.2931C181.5 51.7931 244.6 18.9931 309 3.79312C373.4 -11.4069 381.167 39.1264 377 66.2931C391.833 50.1264 432 16.9931 474 13.7931C526.5 9.79312 523 60.2931 507 107.293C491 154.293 425.5 205.793 371 213.293C334.076 218.374 300.074 203.989 258.5 182.013C227.461 162.007 193.345 143.088 157.439 143.686C97.4392 144.686 32.4392 211.186 30.4392 267.186C28.8392 311.986 114.439 259.186 157.439 227.186C115.839 355.9 275.439 297.484 360.439 252.186C336.939 266.686 273.839 299.486 209.439 314.686C145.039 329.886 137.273 279.353 141.439 252.186C126.606 268.353 86.4393 301.486 44.4393 304.686C-8.0607 308.686 -4.5607 258.186 11.4393 211.186Z" fill="#121212"/>
<path d="M360.439 252.186C342.939 247.186 305.139 233.386 293.939 218.186C269.106 242.686 212.239 291.486 183.439 290.686C154.639 289.886 154.106 248.019 157.439 227.186C115.839 355.9 275.439 297.484 360.439 252.186Z" fill="url(#paint0_linear_7_57)"/>
<path d="M158 66.2931C175.5 71.2931 213.3 85.0931 224.5 100.293C249.333 75.7931 306.2 26.9931 335 27.7931C363.8 28.5931 364.333 70.4598 361 91.2931C397.8 -30.8724 241 23.7242 158 66.2931Z" fill="url(#paint1_linear_7_57)"/>
<path d="M360.439 252.186C336.939 266.686 273.839 299.486 209.439 314.686C145.039 329.886 137.273 279.353 141.439 252.186C126.606 268.353 86.4393 301.486 44.4393 304.686C-8.0607 308.686 -4.5607 258.186 11.4393 211.186C27.4393 164.186 92.9393 112.686 147.439 105.186C184.363 100.105 216.926 114.072 258.5 136.048C289.539 156.055 325.094 175.392 361 174.793C421 173.793 486 107.293 488 51.2931C489.6 6.49312 404 59.2931 361 91.2931M360.439 252.186C342.939 247.186 305.139 233.386 293.939 218.186C269.106 242.686 212.239 291.486 183.439 290.686C154.639 289.886 154.106 248.019 157.439 227.186M360.439 252.186C275.439 297.484 115.839 355.9 157.439 227.186M157.439 227.186C114.439 259.186 28.8392 311.986 30.4392 267.186C32.4392 211.186 97.4392 144.686 157.439 143.686C193.345 143.088 227.461 162.007 258.5 182.013C300.074 203.989 334.076 218.374 371 213.293C425.5 205.793 491 154.293 507 107.293C523 60.2931 526.5 9.79312 474 13.7931C432 16.9931 391.833 50.1264 377 66.2931C381.167 39.1264 373.4 -11.4069 309 3.79312C244.6 18.9931 181.5 51.7931 158 66.2931M158 66.2931C175.5 71.2931 213.3 85.0931 224.5 100.293C249.333 75.7931 306.2 26.9931 335 27.7931C363.8 28.5931 364.333 70.4598 361 91.2931M158 66.2931C241 23.7242 397.8 -30.8724 361 91.2931" stroke="url(#paint2_radial_7_57)" stroke-width="0.5"/>
<path d="M60.8251 432.48C51.022 432.48 42.822 429.181 36.2249 422.584C29.6895 415.987 26.4218 407.756 26.4218 397.891C26.4218 388.027 29.6895 379.827 36.2249 373.291C42.7603 366.633 50.9604 363.303 60.8251 363.303C70.8131 363.303 78.9207 366.91 85.1478 374.124L79.044 380.042C74.2966 374.309 68.2237 371.442 60.8251 371.442C53.4882 371.442 47.3536 373.908 42.4212 378.84C37.5505 383.711 35.1151 390.061 35.1151 397.891C35.1151 405.722 37.5505 412.072 42.4212 416.943C47.3536 421.875 53.4882 424.341 60.8251 424.341C68.5319 424.341 75.2215 421.104 80.8937 414.631L87.09 420.642C83.9456 424.403 80.0922 427.332 75.5297 429.428C70.9673 431.462 66.0657 432.48 60.8251 432.48ZM103.159 364.783V431H94.6504V364.783H103.159ZM110.485 408.342C110.485 401.375 112.674 395.61 117.051 391.048C121.49 386.485 127.07 384.204 133.79 384.204C140.511 384.204 146.06 386.485 150.437 391.048C154.876 395.61 157.096 401.375 157.096 408.342C157.096 415.371 154.876 421.135 150.437 425.636C146.06 430.198 140.511 432.48 133.79 432.48C127.07 432.48 121.49 430.198 117.051 425.636C112.674 421.074 110.485 415.309 110.485 408.342ZM118.993 408.342C118.993 413.213 120.411 417.159 123.247 420.18C126.084 423.201 129.598 424.711 133.79 424.711C137.983 424.711 141.497 423.201 144.333 420.18C147.169 417.159 148.588 413.213 148.588 408.342C148.588 403.533 147.169 399.618 144.333 396.597C141.436 393.514 137.921 391.973 133.79 391.973C129.66 391.973 126.145 393.514 123.247 396.597C120.411 399.618 118.993 403.533 118.993 408.342ZM204.14 431H196.002V424.711H195.632C194.337 426.931 192.333 428.78 189.621 430.26C186.969 431.74 184.195 432.48 181.297 432.48C175.748 432.48 171.463 430.908 168.442 427.763C165.483 424.557 164.003 420.025 164.003 414.168V385.684H172.511V413.613C172.696 421.012 176.427 424.711 183.702 424.711C187.093 424.711 189.929 423.355 192.21 420.642C194.491 417.868 195.632 414.569 195.632 410.746V385.684H204.14V431ZM234.392 424.711C238.584 424.711 242.006 423.201 244.657 420.18C247.432 417.159 248.819 413.213 248.819 408.342C248.819 403.595 247.432 399.679 244.657 396.597C241.945 393.514 238.523 391.973 234.392 391.973C230.323 391.973 226.901 393.514 224.126 396.597C221.352 399.679 219.965 403.595 219.965 408.342C219.965 413.151 221.352 417.066 224.126 420.087C226.901 423.17 230.323 424.711 234.392 424.711ZM233.005 432.48C227.086 432.48 221.999 430.137 217.745 425.451C213.553 420.704 211.456 415.001 211.456 408.342C211.456 401.683 213.553 395.98 217.745 391.233C221.999 386.547 227.086 384.204 233.005 384.204C236.334 384.204 239.355 384.913 242.068 386.331C244.842 387.749 246.969 389.63 248.449 391.973H248.819L248.449 385.684V364.783H256.958V431H248.819V424.711H248.449C246.969 427.054 244.842 428.935 242.068 430.353C239.355 431.771 236.334 432.48 233.005 432.48ZM353.681 364.783H362.559L344.895 431H336.202L321.959 387.349H321.589L307.347 431H298.654L280.25 364.783H289.128L303.093 416.85H303.463L317.798 373.661H325.751L340.086 416.85H340.456L353.681 364.783ZM378.405 370.054C378.405 371.719 377.819 373.137 376.648 374.309C375.476 375.48 374.058 376.066 372.394 376.066C370.729 376.066 369.311 375.48 368.14 374.309C366.968 373.137 366.382 371.719 366.382 370.054C366.382 368.39 366.968 366.972 368.14 365.8C369.311 364.629 370.729 364.043 372.394 364.043C374.058 364.043 375.476 364.629 376.648 365.8C377.819 366.972 378.405 368.39 378.405 370.054ZM376.648 385.684V431H368.14V385.684H376.648ZM422.401 418.422C422.401 422.368 420.675 425.698 417.222 428.411C413.77 431.123 409.423 432.48 404.182 432.48C399.62 432.48 395.612 431.308 392.16 428.965C388.707 426.561 386.241 423.416 384.761 419.532L392.345 416.295C393.454 419.008 395.057 421.135 397.154 422.677C399.312 424.156 401.654 424.896 404.182 424.896C406.895 424.896 409.145 424.31 410.933 423.139C412.783 421.968 413.708 420.58 413.708 418.977C413.708 416.08 411.488 413.953 407.049 412.596L399.281 410.654C390.464 408.434 386.056 404.18 386.056 397.891C386.056 393.761 387.72 390.462 391.05 387.996C394.441 385.468 398.757 384.204 403.997 384.204C408.005 384.204 411.612 385.16 414.818 387.071C418.085 388.982 420.367 391.541 421.661 394.747L414.078 397.891C413.215 395.98 411.797 394.5 409.824 393.452C407.912 392.343 405.754 391.788 403.35 391.788C401.13 391.788 399.127 392.343 397.339 393.452C395.612 394.562 394.749 395.919 394.749 397.522C394.749 400.111 397.184 401.961 402.055 403.07L408.899 404.828C417.9 407.047 422.401 411.579 422.401 418.422ZM450.605 432.48C443.946 432.48 438.459 430.198 434.143 425.636C429.827 421.074 427.669 415.309 427.669 408.342C427.669 401.437 429.765 395.703 433.958 391.14C438.15 386.516 443.514 384.204 450.05 384.204C456.77 384.204 462.103 386.393 466.049 390.77C470.057 395.086 472.06 401.159 472.06 408.989L471.968 409.914H436.362C436.486 414.353 437.965 417.929 440.801 420.642C443.638 423.355 447.029 424.711 450.974 424.711C456.4 424.711 460.654 421.998 463.737 416.573L471.32 420.272C469.286 424.095 466.45 427.085 462.812 429.243C459.236 431.401 455.167 432.48 450.605 432.48ZM437.01 402.885H462.997C462.75 399.741 461.456 397.152 459.113 395.117C456.832 393.021 453.749 391.973 449.865 391.973C446.659 391.973 443.884 392.959 441.541 394.932C439.26 396.905 437.75 399.556 437.01 402.885ZM488.349 364.783V431H479.841V364.783H488.349Z" fill="#121212"/>
<defs>
<linearGradient id="paint0_linear_7_57" x1="184.5" y1="330" x2="337.5" y2="237.5" gradientUnits="userSpaceOnUse">
<stop stop-color="#491BFF"/>
<stop offset="1" stop-color="#3300FF"/>
</linearGradient>
<linearGradient id="paint1_linear_7_57" x1="120.5" y1="185" x2="273" y2="-18" gradientUnits="userSpaceOnUse">
<stop stop-color="#3300FF"/>
<stop offset="0.943953" stop-color="#20009E"/>
</linearGradient>
<radialGradient id="paint2_radial_7_57" cx="0" cy="0" r="1" gradientUnits="userSpaceOnUse" gradientTransform="translate(259.22 159.24) rotate(90) scale(158.24 258.22)">
<stop offset="0.615385" stop-color="#0088FF"/>
<stop offset="0.899038" stop-opacity="0"/>
</radialGradient>
</defs>
</svg>
