<svg width="2254" height="384" viewBox="0 0 2254 384" fill="none" xmlns="http://www.w3.org/2000/svg">
<path fill-rule="evenodd" clip-rule="evenodd" d="M13.6006 254.701C32.913 197.971 111.974 135.808 177.757 126.756C222.325 120.623 261.629 137.481 311.81 164.008C349.275 188.156 392.191 211.496 435.531 210.774C507.953 209.567 586.41 129.299 588.824 61.7053C590.755 7.63036 487.433 71.3616 435.531 109.987C479.95 -37.4709 290.687 28.4288 190.504 79.8108C218.869 62.3089 295.033 22.7182 372.765 4.37138C450.498 -13.9755 459.873 47.0198 454.844 79.8108C472.748 60.2971 521.23 20.3042 571.925 16.4417C635.294 11.6136 631.07 72.5686 611.757 129.299C592.445 186.029 513.384 248.192 447.601 257.244C403.033 263.377 361.992 246.014 311.81 219.488C274.345 195.34 233.167 172.504 189.827 173.226C117.405 174.433 38.9481 254.701 36.534 322.295C34.6028 376.37 137.925 312.638 189.827 274.013C139.614 429.376 332.257 358.865 434.854 304.189C406.489 321.691 330.325 361.282 252.593 379.629C174.86 397.975 165.485 336.98 170.514 304.189C152.61 323.703 104.128 363.696 53.4326 367.558C-9.93654 372.386 -5.71193 311.431 13.6006 254.701Z" fill="url(#paint0_linear_7_51)"/>
<path d="M434.854 304.189C413.731 298.154 368.105 281.497 354.587 263.15C324.612 292.722 255.972 351.625 221.21 350.66C186.447 349.694 185.804 299.16 189.827 274.013C139.614 429.376 332.257 358.865 434.854 304.189Z" fill="url(#paint1_linear_7_51)"/>
<path d="M190.504 79.8108C211.627 85.846 257.253 102.503 270.771 120.85C300.746 91.2776 369.386 32.3745 404.148 33.3401C438.911 34.3058 439.554 84.8401 435.531 109.987C479.95 -37.4709 290.687 28.4288 190.504 79.8108Z" fill="url(#paint2_linear_7_51)"/>
<path d="M434.854 304.189C406.489 321.691 330.325 361.282 252.593 379.629C174.86 397.975 165.485 336.98 170.514 304.189C152.61 323.703 104.128 363.696 53.4326 367.558C-9.93654 372.386 -5.71193 311.431 13.6006 254.701C32.913 197.971 111.974 135.808 177.757 126.756C222.325 120.623 261.629 137.481 311.81 164.008C349.275 188.156 392.191 211.496 435.531 210.774C507.953 209.567 586.41 129.299 588.824 61.7053C590.755 7.63036 487.433 71.3616 435.531 109.987M434.854 304.189C413.731 298.154 368.105 281.497 354.587 263.15C324.612 292.722 255.972 351.625 221.21 350.66C186.447 349.694 185.804 299.16 189.827 274.013M434.854 304.189C332.257 358.865 139.614 429.376 189.827 274.013M189.827 274.013C137.925 312.638 34.6028 376.37 36.534 322.295C38.9481 254.701 117.405 174.433 189.827 173.226C233.167 172.504 274.345 195.34 311.81 219.488C361.992 246.014 403.033 263.377 447.601 257.244C513.384 248.192 592.445 186.029 611.757 129.299C631.07 72.5686 635.294 11.6136 571.925 16.4417C521.23 20.3042 472.748 60.2971 454.844 79.8108C459.873 47.0198 450.498 -13.9755 372.765 4.37138C295.033 22.7182 218.869 62.3089 190.504 79.8108M190.504 79.8108C211.627 85.846 257.253 102.503 270.771 120.85C300.746 91.2776 369.386 32.3745 404.148 33.3401C438.911 34.3058 439.554 84.8401 435.531 109.987M190.504 79.8108C290.687 28.4288 479.95 -37.4709 435.531 109.987" stroke="url(#paint3_radial_7_51)" stroke-width="0.603515"/>
<path d="M804.736 308.987C771.927 308.987 744.483 297.948 722.405 275.869C700.532 253.791 689.596 226.244 689.596 193.229C689.596 160.214 700.532 132.77 722.405 110.898C744.277 88.6129 771.721 77.4703 804.736 77.4703C838.163 77.4703 865.297 89.5414 886.138 113.684L865.71 133.493C849.822 114.303 829.497 104.708 804.736 104.708C780.181 104.708 759.65 112.961 743.142 129.469C726.841 145.77 718.691 167.023 718.691 193.229C718.691 219.434 726.841 240.688 743.142 256.989C759.65 273.496 780.181 281.75 804.736 281.75C830.529 281.75 852.917 270.917 871.9 249.251L892.638 269.37C882.114 281.956 869.218 291.758 853.949 298.773C838.679 305.583 822.275 308.987 804.736 308.987ZM946.416 82.4226V304.035H917.941V82.4226H946.416ZM970.935 228.204C970.935 204.887 978.261 185.594 992.911 170.325C1007.77 155.055 1026.44 147.421 1048.93 147.421C1071.42 147.421 1090 155.055 1104.65 170.325C1119.5 185.594 1126.93 204.887 1126.93 228.204C1126.93 251.727 1119.5 271.02 1104.65 286.083C1090 301.353 1071.42 308.987 1048.93 308.987C1026.44 308.987 1007.77 301.353 992.911 286.083C978.261 270.814 970.935 251.521 970.935 228.204ZM999.411 228.204C999.411 244.505 1004.16 257.711 1013.65 267.822C1023.14 277.933 1034.9 282.988 1048.93 282.988C1062.96 282.988 1074.73 277.933 1084.22 267.822C1093.71 257.711 1098.46 244.505 1098.46 228.204C1098.46 212.109 1093.71 199.006 1084.22 188.896C1074.52 178.578 1062.76 173.42 1048.93 173.42C1035.11 173.42 1023.35 178.578 1013.65 188.896C1004.16 199.006 999.411 212.109 999.411 228.204ZM1284.38 304.035H1257.14V282.988H1255.9C1251.57 290.417 1244.86 296.607 1235.78 301.559C1226.91 306.511 1217.63 308.987 1207.93 308.987C1189.36 308.987 1175.02 303.726 1164.9 293.202C1155 282.472 1150.05 267.306 1150.05 247.703V152.373H1178.52V245.846C1179.14 270.608 1191.63 282.988 1215.97 282.988C1227.32 282.988 1236.82 278.449 1244.45 269.37C1252.08 260.084 1255.9 249.045 1255.9 236.251V152.373H1284.38V304.035ZM1385.62 282.988C1399.65 282.988 1411.11 277.933 1419.98 267.822C1429.26 257.711 1433.91 244.505 1433.91 228.204C1433.91 212.316 1429.26 199.213 1419.98 188.896C1410.9 178.578 1399.45 173.42 1385.62 173.42C1372 173.42 1360.55 178.578 1351.27 188.896C1341.98 199.213 1337.34 212.316 1337.34 228.204C1337.34 244.299 1341.98 257.402 1351.27 267.512C1360.55 277.83 1372 282.988 1385.62 282.988ZM1380.98 308.987C1361.17 308.987 1344.15 301.146 1329.91 285.464C1315.88 269.576 1308.86 250.489 1308.86 228.204C1308.86 205.919 1315.88 186.832 1329.91 170.944C1344.15 155.262 1361.17 147.421 1380.98 147.421C1392.12 147.421 1402.23 149.794 1411.31 154.54C1420.6 159.285 1427.72 165.579 1432.67 173.42H1433.91L1432.67 152.373V82.4226H1461.14V304.035H1433.91V282.988H1432.67C1427.72 290.829 1420.6 297.123 1411.31 301.869C1402.23 306.614 1392.12 308.987 1380.98 308.987ZM1784.85 82.4226H1814.57L1755.45 304.035H1726.35L1678.69 157.944H1677.45L1629.79 304.035H1600.69L1539.1 82.4226H1568.81L1615.55 256.679H1616.79L1664.76 112.136H1691.38L1739.35 256.679H1740.59L1784.85 82.4226ZM1867.6 100.065C1867.6 105.636 1865.64 110.382 1861.72 114.303C1857.8 118.223 1853.05 120.183 1847.48 120.183C1841.91 120.183 1837.16 118.223 1833.24 114.303C1829.32 110.382 1827.36 105.636 1827.36 100.065C1827.36 94.4936 1829.32 89.7477 1833.24 85.8272C1837.16 81.9067 1841.91 79.9465 1847.48 79.9465C1853.05 79.9465 1857.8 81.9067 1861.72 85.8272C1865.64 89.7477 1867.6 94.4936 1867.6 100.065ZM1861.72 152.373V304.035H1833.24V152.373H1861.72ZM2014.84 261.941C2014.84 275.147 2009.07 286.29 1997.51 295.369C1985.96 304.448 1971.41 308.987 1953.87 308.987C1938.6 308.987 1925.19 305.067 1913.63 297.226C1902.08 289.178 1893.82 278.655 1888.87 265.655L1914.25 254.822C1917.97 263.901 1923.33 271.02 1930.35 276.179C1937.57 281.131 1945.41 283.607 1953.87 283.607C1962.95 283.607 1970.48 281.647 1976.46 277.726C1982.65 273.806 1985.75 269.163 1985.75 263.798C1985.75 254.1 1978.32 246.981 1963.46 242.442L1937.47 235.942C1907.96 228.514 1893.2 214.276 1893.2 193.229C1893.2 179.404 1898.78 168.365 1909.92 160.111C1921.27 151.651 1935.71 147.421 1953.25 147.421C1966.66 147.421 1978.73 150.619 1989.46 157.016C2000.4 163.412 2008.03 171.976 2012.37 182.705L1986.99 193.229C1984.1 186.832 1979.35 181.88 1972.75 178.372C1966.35 174.658 1959.13 172.801 1951.08 172.801C1943.66 172.801 1936.95 174.658 1930.97 178.372C1925.19 182.086 1922.3 186.626 1922.3 191.991C1922.3 200.657 1930.45 206.848 1946.75 210.562L1969.66 216.442C1999.78 223.871 2014.84 239.037 2014.84 261.941ZM2109.23 308.987C2086.95 308.987 2068.58 301.353 2054.14 286.083C2039.7 270.814 2032.47 251.521 2032.47 228.204C2032.47 205.094 2039.49 185.904 2053.52 170.634C2067.55 155.159 2085.5 147.421 2107.38 147.421C2129.87 147.421 2147.72 154.746 2160.92 169.396C2174.34 183.84 2181.04 204.165 2181.04 230.371L2180.73 233.466H2061.57C2061.98 248.322 2066.93 260.29 2076.43 269.37C2085.92 278.449 2097.27 282.988 2110.47 282.988C2128.63 282.988 2142.87 273.909 2153.19 255.751L2178.57 268.131C2171.76 280.925 2162.26 290.932 2150.09 298.154C2138.12 305.376 2124.5 308.987 2109.23 308.987ZM2063.74 209.943H2150.71C2149.88 199.419 2145.55 190.753 2137.71 183.943C2130.07 176.928 2119.76 173.42 2106.76 173.42C2096.03 173.42 2086.74 176.721 2078.9 183.324C2071.27 189.927 2066.21 198.8 2063.74 209.943ZM2235.56 82.4226V304.035H2207.08V82.4226H2235.56Z" fill="white"/>
<defs>
<linearGradient id="paint0_linear_7_51" x1="443.377" y1="0.999997" x2="86.0957" y2="334.744" gradientUnits="userSpaceOnUse">
<stop stop-color="#4E22FF"/>
<stop offset="1" stop-color="#1E0098"/>
</linearGradient>
<linearGradient id="paint1_linear_7_51" x1="222.49" y1="398.113" x2="407.166" y2="286.463" gradientUnits="userSpaceOnUse">
<stop stop-color="#491BFF"/>
<stop offset="1" stop-color="#3300FF"/>
</linearGradient>
<linearGradient id="paint2_linear_7_51" x1="145.24" y1="223.094" x2="329.312" y2="-21.9336" gradientUnits="userSpaceOnUse">
<stop stop-color="#3300FF"/>
<stop offset="0.943953" stop-color="#20009E"/>
</linearGradient>
<radialGradient id="paint3_radial_7_51" cx="0" cy="0" r="1" gradientUnits="userSpaceOnUse" gradientTransform="translate(312.679 192) rotate(90) scale(191 311.679)">
<stop offset="0.615385" stop-color="#0088FF"/>
<stop offset="0.899038" stop-opacity="0"/>
</radialGradient>
</defs>
</svg>
