<svg width="518" height="454" viewBox="0 0 518 454" fill="none" xmlns="http://www.w3.org/2000/svg">
<path fill-rule="evenodd" clip-rule="evenodd" d="M11.4393 211.186C27.4393 164.186 92.9393 112.686 147.439 105.186C184.363 100.105 216.926 114.072 258.5 136.048C289.539 156.055 325.094 175.392 361 174.793C421 173.793 486 107.293 488 51.2931C489.6 6.49312 404 59.2931 361 91.2931C397.8 -30.8724 241 23.7242 158 66.2931C181.5 51.7931 244.6 18.9931 309 3.79312C373.4 -11.4069 381.167 39.1264 377 66.2931C391.833 50.1264 432 16.9931 474 13.7931C526.5 9.79312 523 60.2931 507 107.293C491 154.293 425.5 205.793 371 213.293C334.076 218.374 300.074 203.989 258.5 182.013C227.461 162.007 193.345 143.088 157.439 143.686C97.4392 144.686 32.4392 211.186 30.4392 267.186C28.8392 311.986 114.439 259.186 157.439 227.186C115.839 355.9 275.439 297.484 360.439 252.186C336.939 266.686 273.839 299.486 209.439 314.686C145.039 329.886 137.273 279.353 141.439 252.186C126.606 268.353 86.4393 301.486 44.4393 304.686C-8.0607 308.686 -4.5607 258.186 11.4393 211.186Z" fill="url(#paint0_linear_7_55)"/>
<path d="M360.439 252.186C342.939 247.186 305.139 233.386 293.939 218.186C269.106 242.686 212.239 291.486 183.439 290.686C154.639 289.886 154.106 248.019 157.439 227.186C115.839 355.9 275.439 297.484 360.439 252.186Z" fill="url(#paint1_linear_7_55)"/>
<path d="M158 66.2931C175.5 71.2931 213.3 85.0931 224.5 100.293C249.333 75.7931 306.2 26.9931 335 27.7931C363.8 28.5931 364.333 70.4598 361 91.2931C397.8 -30.8724 241 23.7242 158 66.2931Z" fill="url(#paint2_linear_7_55)"/>
<path d="M360.439 252.186C336.939 266.686 273.839 299.486 209.439 314.686C145.039 329.886 137.273 279.353 141.439 252.186C126.606 268.353 86.4393 301.486 44.4393 304.686C-8.0607 308.686 -4.5607 258.186 11.4393 211.186C27.4393 164.186 92.9393 112.686 147.439 105.186C184.363 100.105 216.926 114.072 258.5 136.048C289.539 156.055 325.094 175.392 361 174.793C421 173.793 486 107.293 488 51.2931C489.6 6.49312 404 59.2931 361 91.2931M360.439 252.186C342.939 247.186 305.139 233.386 293.939 218.186C269.106 242.686 212.239 291.486 183.439 290.686C154.639 289.886 154.106 248.019 157.439 227.186M360.439 252.186C275.439 297.484 115.839 355.9 157.439 227.186M157.439 227.186C114.439 259.186 28.8392 311.986 30.4392 267.186C32.4392 211.186 97.4392 144.686 157.439 143.686C193.345 143.088 227.461 162.007 258.5 182.013C300.074 203.989 334.076 218.374 371 213.293C425.5 205.793 491 154.293 507 107.293C523 60.2931 526.5 9.79312 474 13.7931C432 16.9931 391.833 50.1264 377 66.2931C381.167 39.1264 373.4 -11.4069 309 3.79312C244.6 18.9931 181.5 51.7931 158 66.2931M158 66.2931C175.5 71.2931 213.3 85.0931 224.5 100.293C249.333 75.7931 306.2 26.9931 335 27.7931C363.8 28.5931 364.333 70.4598 361 91.2931M158 66.2931C241 23.7242 397.8 -30.8724 361 91.2931" stroke="url(#paint3_radial_7_55)" stroke-width="0.5"/>
<path d="M61.8251 432.48C52.022 432.48 43.822 429.181 37.2249 422.584C30.6895 415.987 27.4218 407.756 27.4218 397.891C27.4218 388.027 30.6895 379.827 37.2249 373.291C43.7603 366.633 51.9604 363.303 61.8251 363.303C71.8131 363.303 79.9207 366.91 86.1478 374.124L80.044 380.042C75.2966 374.309 69.2237 371.442 61.8251 371.442C54.4882 371.442 48.3536 373.908 43.4212 378.84C38.5505 383.711 36.1151 390.061 36.1151 397.891C36.1151 405.722 38.5505 412.072 43.4212 416.943C48.3536 421.875 54.4882 424.341 61.8251 424.341C69.5319 424.341 76.2215 421.104 81.8937 414.631L88.09 420.642C84.9456 424.403 81.0922 427.332 76.5297 429.428C71.9673 431.462 67.0657 432.48 61.8251 432.48ZM104.159 364.783V431H95.6504V364.783H104.159ZM111.485 408.342C111.485 401.375 113.674 395.61 118.051 391.048C122.49 386.485 128.07 384.204 134.79 384.204C141.511 384.204 147.06 386.485 151.437 391.048C155.876 395.61 158.096 401.375 158.096 408.342C158.096 415.371 155.876 421.135 151.437 425.636C147.06 430.198 141.511 432.48 134.79 432.48C128.07 432.48 122.49 430.198 118.051 425.636C113.674 421.074 111.485 415.309 111.485 408.342ZM119.993 408.342C119.993 413.213 121.411 417.159 124.247 420.18C127.084 423.201 130.598 424.711 134.79 424.711C138.983 424.711 142.497 423.201 145.333 420.18C148.169 417.159 149.588 413.213 149.588 408.342C149.588 403.533 148.169 399.618 145.333 396.597C142.436 393.514 138.921 391.973 134.79 391.973C130.66 391.973 127.145 393.514 124.247 396.597C121.411 399.618 119.993 403.533 119.993 408.342ZM205.14 431H197.002V424.711H196.632C195.337 426.931 193.333 428.78 190.621 430.26C187.969 431.74 185.195 432.48 182.297 432.48C176.748 432.48 172.463 430.908 169.442 427.763C166.483 424.557 165.003 420.025 165.003 414.168V385.684H173.511V413.613C173.696 421.012 177.427 424.711 184.702 424.711C188.093 424.711 190.929 423.355 193.21 420.642C195.491 417.868 196.632 414.569 196.632 410.746V385.684H205.14V431ZM235.392 424.711C239.584 424.711 243.006 423.201 245.657 420.18C248.432 417.159 249.819 413.213 249.819 408.342C249.819 403.595 248.432 399.679 245.657 396.597C242.945 393.514 239.523 391.973 235.392 391.973C231.323 391.973 227.901 393.514 225.126 396.597C222.352 399.679 220.965 403.595 220.965 408.342C220.965 413.151 222.352 417.066 225.126 420.087C227.901 423.17 231.323 424.711 235.392 424.711ZM234.005 432.48C228.086 432.48 222.999 430.137 218.745 425.451C214.553 420.704 212.456 415.001 212.456 408.342C212.456 401.683 214.553 395.98 218.745 391.233C222.999 386.547 228.086 384.204 234.005 384.204C237.334 384.204 240.355 384.913 243.068 386.331C245.842 387.749 247.969 389.63 249.449 391.973H249.819L249.449 385.684V364.783H257.958V431H249.819V424.711H249.449C247.969 427.054 245.842 428.935 243.068 430.353C240.355 431.771 237.334 432.48 234.005 432.48ZM354.681 364.783H363.559L345.895 431H337.202L322.959 387.349H322.589L308.347 431H299.654L281.25 364.783H290.128L304.093 416.85H304.463L318.798 373.661H326.751L341.086 416.85H341.456L354.681 364.783ZM379.405 370.054C379.405 371.719 378.819 373.137 377.648 374.309C376.476 375.48 375.058 376.066 373.394 376.066C371.729 376.066 370.311 375.48 369.14 374.309C367.968 373.137 367.382 371.719 367.382 370.054C367.382 368.39 367.968 366.972 369.14 365.8C370.311 364.629 371.729 364.043 373.394 364.043C375.058 364.043 376.476 364.629 377.648 365.8C378.819 366.972 379.405 368.39 379.405 370.054ZM377.648 385.684V431H369.14V385.684H377.648ZM423.401 418.422C423.401 422.368 421.675 425.698 418.222 428.411C414.77 431.123 410.423 432.48 405.182 432.48C400.62 432.48 396.612 431.308 393.16 428.965C389.707 426.561 387.241 423.416 385.761 419.532L393.345 416.295C394.454 419.008 396.057 421.135 398.154 422.677C400.312 424.156 402.654 424.896 405.182 424.896C407.895 424.896 410.145 424.31 411.933 423.139C413.783 421.968 414.708 420.58 414.708 418.977C414.708 416.08 412.488 413.953 408.049 412.596L400.281 410.654C391.464 408.434 387.056 404.18 387.056 397.891C387.056 393.761 388.72 390.462 392.05 387.996C395.441 385.468 399.757 384.204 404.997 384.204C409.005 384.204 412.612 385.16 415.818 387.071C419.085 388.982 421.367 391.541 422.661 394.747L415.078 397.891C414.215 395.98 412.797 394.5 410.824 393.452C408.912 392.343 406.754 391.788 404.35 391.788C402.13 391.788 400.127 392.343 398.339 393.452C396.612 394.562 395.749 395.919 395.749 397.522C395.749 400.111 398.184 401.961 403.055 403.07L409.899 404.828C418.9 407.047 423.401 411.579 423.401 418.422ZM451.605 432.48C444.946 432.48 439.459 430.198 435.143 425.636C430.827 421.074 428.669 415.309 428.669 408.342C428.669 401.437 430.765 395.703 434.958 391.14C439.15 386.516 444.514 384.204 451.05 384.204C457.77 384.204 463.103 386.393 467.049 390.77C471.057 395.086 473.06 401.159 473.06 408.989L472.968 409.914H437.362C437.486 414.353 438.965 417.929 441.801 420.642C444.638 423.355 448.029 424.711 451.974 424.711C457.4 424.711 461.654 421.998 464.737 416.573L472.32 420.272C470.286 424.095 467.45 427.085 463.812 429.243C460.236 431.401 456.167 432.48 451.605 432.48ZM438.01 402.885H463.997C463.75 399.741 462.456 397.152 460.113 395.117C457.832 393.021 454.749 391.973 450.865 391.973C447.659 391.973 444.884 392.959 442.541 394.932C440.26 396.905 438.75 399.556 438.01 402.885ZM489.349 364.783V431H480.841V364.783H489.349Z" fill="white"/>
<defs>
<linearGradient id="paint0_linear_7_55" x1="367.5" y1="0.999998" x2="71.5" y2="277.5" gradientUnits="userSpaceOnUse">
<stop stop-color="#4E22FF"/>
<stop offset="1" stop-color="#1E0098"/>
</linearGradient>
<linearGradient id="paint1_linear_7_55" x1="184.5" y1="330" x2="337.5" y2="237.5" gradientUnits="userSpaceOnUse">
<stop stop-color="#491BFF"/>
<stop offset="1" stop-color="#3300FF"/>
</linearGradient>
<linearGradient id="paint2_linear_7_55" x1="120.5" y1="185" x2="273" y2="-18" gradientUnits="userSpaceOnUse">
<stop stop-color="#3300FF"/>
<stop offset="0.943953" stop-color="#20009E"/>
</linearGradient>
<radialGradient id="paint3_radial_7_55" cx="0" cy="0" r="1" gradientUnits="userSpaceOnUse" gradientTransform="translate(259.22 159.24) rotate(90) scale(158.24 258.22)">
<stop offset="0.615385" stop-color="#0088FF"/>
<stop offset="0.899038" stop-opacity="0"/>
</radialGradient>
</defs>
</svg>
