<svg width="1756" height="1077" viewBox="0 0 1756 1077" fill="none" xmlns="http://www.w3.org/2000/svg">
<path fill-rule="evenodd" clip-rule="evenodd" d="M36.4425 714.603C90.7641 555.033 313.143 380.185 498.176 354.722C623.536 337.471 734.09 384.891 875.239 459.503C980.62 527.426 1101.33 593.077 1223.24 591.046C1426.94 587.65 1647.62 361.876 1654.42 171.75C1659.85 19.6497 1369.23 198.911 1223.24 307.554C1348.18 -107.21 815.825 78.1509 534.031 222.677C613.816 173.448 828.047 62.0885 1046.69 10.4829C1265.34 -41.1226 1291.7 130.443 1277.56 222.677C1327.92 167.789 1464.29 55.2983 1606.88 44.434C1785.13 30.8535 1773.24 202.306 1718.92 361.876C1664.6 521.446 1442.22 696.294 1257.19 721.757C1131.83 739.008 1016.39 690.17 875.239 615.558C769.858 547.635 654.032 483.402 532.127 485.434C328.421 488.829 107.739 714.603 100.949 904.729C95.517 1056.83 386.138 877.568 532.127 768.925C390.891 1205.92 932.749 1007.59 1221.33 853.802C1141.55 903.031 927.317 1014.39 708.673 1066C490.028 1117.6 463.659 946.036 477.806 853.802C427.445 908.69 291.075 1021.18 148.481 1032.05C-29.762 1045.63 -17.8791 874.173 36.4425 714.603Z" fill="url(#paint0_linear_7_52)"/>
<path d="M1221.33 853.802C1161.92 836.827 1033.58 789.974 995.559 738.369C911.247 821.549 718.179 987.23 620.4 984.514C522.621 981.798 520.81 839.656 532.127 768.925C390.891 1205.92 932.749 1007.59 1221.33 853.802Z" fill="url(#paint1_linear_7_52)"/>
<path d="M534.031 222.677C593.445 239.652 721.78 286.505 759.805 338.11C844.117 254.93 1037.19 89.2494 1134.96 91.9654C1232.74 94.6815 1234.55 236.823 1223.24 307.554C1348.18 -107.21 815.825 78.1509 534.031 222.677Z" fill="url(#paint2_linear_7_52)"/>
<path d="M1221.33 853.802C1141.55 903.031 927.317 1014.39 708.673 1066C490.028 1117.6 463.659 946.036 477.806 853.802C427.445 908.69 291.075 1021.18 148.481 1032.05C-29.762 1045.63 -17.8791 874.173 36.4425 714.603C90.7641 555.033 313.143 380.185 498.176 354.722C623.536 337.471 734.09 384.891 875.239 459.503C980.62 527.426 1101.33 593.077 1223.24 591.046C1426.94 587.65 1647.62 361.876 1654.42 171.75C1659.85 19.6497 1369.23 198.911 1223.24 307.554M1221.33 853.802C1161.92 836.827 1033.58 789.974 995.559 738.369C911.247 821.549 718.179 987.23 620.4 984.514C522.621 981.798 520.81 839.656 532.127 768.925M1221.33 853.802C932.749 1007.59 390.891 1205.92 532.127 768.925M532.127 768.925C386.138 877.568 95.517 1056.83 100.949 904.729C107.739 714.603 328.421 488.829 532.127 485.434C654.032 483.402 769.858 547.635 875.239 615.558C1016.39 690.17 1131.83 739.008 1257.19 721.757C1442.22 696.294 1664.6 521.446 1718.92 361.876C1773.24 202.306 1785.13 30.8535 1606.88 44.434C1464.29 55.2983 1327.92 167.789 1277.56 222.677C1291.7 130.443 1265.34 -41.1226 1046.69 10.4829C828.047 62.0885 613.816 173.448 534.031 222.677M534.031 222.677C593.445 239.652 721.78 286.505 759.805 338.11C844.117 254.93 1037.19 89.2494 1134.96 91.9654C1232.74 94.6815 1234.55 236.823 1223.24 307.554M534.031 222.677C815.825 78.1509 1348.18 -107.21 1223.24 307.554" stroke="url(#paint3_radial_7_52)" stroke-width="1.69755"/>
<defs>
<linearGradient id="paint0_linear_7_52" x1="1245.31" y1="0.999992" x2="240.355" y2="939.746" gradientUnits="userSpaceOnUse">
<stop stop-color="#4E22FF"/>
<stop offset="1" stop-color="#1E0098"/>
</linearGradient>
<linearGradient id="paint1_linear_7_52" x1="624.001" y1="1117.99" x2="1143.45" y2="803.942" gradientUnits="userSpaceOnUse">
<stop stop-color="#491BFF"/>
<stop offset="1" stop-color="#3300FF"/>
</linearGradient>
<linearGradient id="paint2_linear_7_52" x1="406.715" y1="625.699" x2="924.468" y2="-63.507" gradientUnits="userSpaceOnUse">
<stop stop-color="#3300FF"/>
<stop offset="0.943953" stop-color="#20009E"/>
</linearGradient>
<radialGradient id="paint3_radial_7_52" cx="0" cy="0" r="1" gradientUnits="userSpaceOnUse" gradientTransform="translate(877.682 538.24) rotate(90) scale(537.24 876.682)">
<stop offset="0.615385" stop-color="#0088FF"/>
<stop offset="0.899038" stop-opacity="0"/>
</radialGradient>
</defs>
</svg>
